{
	"asset":{
		"generator":"Khronos glTF Blender I/O v3.6.27",
		"version":"2.0"
	},
	"scene":0,
	"scenes":[
		{
			"name":"Scene",
			"nodes":[
				0
			]
		}
	],
	"nodes":[
		{
			"mesh":0,
			"name":"Cube",
			"rotation":[
				0,
				-1,
				0,
				4.371138828673793e-08
			]
		}
	],
	"materials":[
		{
			"doubleSided":true,
			"name":"Material",
			"pbrMetallicRoughness":{
				"baseColorTexture":{
					"index":0
				},
				"metallicFactor":0,
				"roughnessFactor":0.5
			}
		}
	],
	"meshes":[
		{
			"name":"Cube",
			"primitives":[
				{
					"attributes":{
						"POSITION":0,
						"NORMAL":1,
						"TEXCOORD_0":2
					},
					"indices":3,
					"material":0
				}
			]
		}
	],
	"textures":[
		{
			"sampler":0,
			"source":0
		}
	],
	"images":[
		{
			"bufferView":4,
			"mimeType":"image/png",
			"name":"last_banana"
		}
	],
	"accessors":[
		{
			"bufferView":0,
			"componentType":5126,
			"count":1558,
			"max":[
				1.097581148147583,
				5.509032249450684,
				4.883404731750488
			],
			"min":[
				-1.1223074197769165,
				-0.6489483118057251,
				-3.9767024517059326
			],
			"type":"VEC3"
		},
		{
			"bufferView":1,
			"componentType":5126,
			"count":1558,
			"type":"VEC3"
		},
		{
			"bufferView":2,
			"componentType":5126,
			"count":1558,
			"type":"VEC2"
		},
		{
			"bufferView":3,
			"componentType":5123,
			"count":7632,
			"type":"SCALAR"
		}
	],
	"bufferViews":[
		{
			"buffer":0,
			"byteLength":18696,
			"byteOffset":0,
			"target":34962
		},
		{
			"buffer":0,
			"byteLength":18696,
			"byteOffset":18696,
			"target":34962
		},
		{
			"buffer":0,
			"byteLength":12464,
			"byteOffset":37392,
			"target":34962
		},
		{
			"buffer":0,
			"byteLength":15264,
			"byteOffset":49856,
			"target":34963
		},
		{
			"buffer":0,
			"byteLength":1643671,
			"byteOffset":65120
		}
	],
	"samplers":[
		{
			"magFilter":9729,
			"minFilter":9987
		}
	],
	"buffers":[
		{
			"byteLength":1708792,
			"uri":"data:application/octet-stream;base64,"
		}
	]
}
