{
	"asset":{
		"generator":"Khronos glTF Blender I/O v3.6.27",
		"version":"2.0"
	},
	"scene":0,
	"scenes":[
		{
			"name":"Scene",
			"nodes":[
				0,
				1,
				2
			]
		}
	],
	"nodes":[
		{
			"mesh":0,
			"name":"Sphere"
		},
		{
			"mesh":1,
			"name":"leaf1.013",
			"rotation":[
				-0.8229359984397888,
				0.01948951929807663,
				-0.11089222133159637,
				0.5568656921386719
			],
			"scale":[
				-0.06335954368114471,
				-0.3411391079425812,
				-0.18406960368156433
			],
			"translation":[
				-0.02113291062414646,
				1.301973819732666,
				0.14313048124313354
			]
		},
		{
			"mesh":2,
			"name":"BezierCurve",
			"rotation":[
				0,
				0,
				-0.7071068286895752,
				0.7071068286895752
			],
			"scale":[
				0.19434116780757904,
				0.5494067072868347,
				0.5494067072868347
			],
			"translation":[
				-0.0024075880646705627,
				1.36711847782135,
				0.003803754225373268
			]
		}
	],
	"materials":[
		{
			"doubleSided":true,
			"name":"Material.005",
			"pbrMetallicRoughness":{
				"baseColorTexture":{
					"index":0
				},
				"metallicFactor":0.08363636583089828,
				"roughnessFactor":0.6654545068740845
			}
		},
		{
			"doubleSided":true,
			"name":"Material.002",
			"pbrMetallicRoughness":{
				"baseColorTexture":{
					"index":1
				},
				"metallicFactor":0,
				"roughnessFactor":0.5
			}
		},
		{
			"doubleSided":true,
			"name":"Material.004",
			"pbrMetallicRoughness":{
				"baseColorFactor":[
					0.0368894599378109,
					0.09989873319864273,
					0.049706559628248215,
					1
				],
				"metallicFactor":0,
				"roughnessFactor":0.5
			}
		}
	],
	"meshes":[
		{
			"name":"Sphere.001",
			"primitives":[
				{
					"attributes":{
						"POSITION":0,
						"NORMAL":1,
						"TEXCOORD_0":2
					},
					"indices":3,
					"material":0
				}
			]
		},
		{
			"name":"Plane.014",
			"primitives":[
				{
					"attributes":{
						"POSITION":4,
						"NORMAL":5,
						"TEXCOORD_0":6
					},
					"indices":7,
					"material":1
				}
			]
		},
		{
			"name":"BezierCurve.001",
			"primitives":[
				{
					"attributes":{
						"POSITION":8,
						"NORMAL":9,
						"TEXCOORD_0":10
					},
					"indices":11,
					"material":2
				}
			]
		}
	],
	"textures":[
		{
			"sampler":0,
			"source":0
		},
		{
			"sampler":0,
			"source":1
		}
	],
	"images":[
		{
			"bufferView":4,
			"mimeType":"image/png",
			"name":"\ud55c\ub77c\ubd09_UVmap"
		},
		{
			"bufferView":9,
			"mimeType":"image/png",
			"name":"leaf"
		}
	],
	"accessors":[
		{
			"bufferView":0,
			"componentType":5126,
			"count":757,
			"max":[
				0.9999997019767761,
				1.191983938217163,
				0.9999993443489075
			],
			"min":[
				-0.9999990463256836,
				-1,
				-1
			],
			"type":"VEC3"
		},
		{
			"bufferView":1,
			"componentType":5126,
			"count":757,
			"type":"VEC3"
		},
		{
			"bufferView":2,
			"componentType":5126,
			"count":757,
			"type":"VEC2"
		},
		{
			"bufferView":3,
			"componentType":5123,
			"count":4032,
			"type":"SCALAR"
		},
		{
			"bufferView":5,
			"componentType":5126,
			"count":3072,
			"max":[
				1.0654664039611816,
				0.45060810446739197,
				0.7409364581108093
			],
			"min":[
				-1.0181446075439453,
				-0.022860126569867134,
				-1
			],
			"type":"VEC3"
		},
		{
			"bufferView":6,
			"componentType":5126,
			"count":3072,
			"type":"VEC3"
		},
		{
			"bufferView":7,
			"componentType":5126,
			"count":3072,
			"type":"VEC2"
		},
		{
			"bufferView":8,
			"componentType":5123,
			"count":4608,
			"type":"SCALAR"
		},
		{
			"bufferView":10,
			"componentType":5126,
			"count":306,
			"max":[
				1.3476769924163818,
				0.061093103140592575,
				0.18938884139060974
			],
			"min":[
				-0.6114813685417175,
				-0.027524033561348915,
				-0.05487889423966408
			],
			"type":"VEC3"
		},
		{
			"bufferView":11,
			"componentType":5126,
			"count":306,
			"type":"VEC3"
		},
		{
			"bufferView":12,
			"componentType":5126,
			"count":306,
			"type":"VEC2"
		},
		{
			"bufferView":13,
			"componentType":5123,
			"count":1284,
			"type":"SCALAR"
		}
	],
	"bufferViews":[
		{
			"buffer":0,
			"byteLength":9084,
			"byteOffset":0,
			"target":34962
		},
		{
			"buffer":0,
			"byteLength":9084,
			"byteOffset":9084,
			"target":34962
		},
		{
			"buffer":0,
			"byteLength":6056,
			"byteOffset":18168,
			"target":34962
		},
		{
			"buffer":0,
			"byteLength":8064,
			"byteOffset":24224,
			"target":34963
		},
		{
			"buffer":0,
			"byteLength":1285794,
			"byteOffset":32288
		},
		{
			"buffer":0,
			"byteLength":36864,
			"byteOffset":1318084,
			"target":34962
		},
		{
			"buffer":0,
			"byteLength":36864,
			"byteOffset":1354948,
			"target":34962
		},
		{
			"buffer":0,
			"byteLength":24576,
			"byteOffset":1391812,
			"target":34962
		},
		{
			"buffer":0,
			"byteLength":9216,
			"byteOffset":1416388,
			"target":34963
		},
		{
			"buffer":0,
			"byteLength":86802,
			"byteOffset":1425604
		},
		{
			"buffer":0,
			"byteLength":3672,
			"byteOffset":1512408,
			"target":34962
		},
		{
			"buffer":0,
			"byteLength":3672,
			"byteOffset":1516080,
			"target":34962
		},
		{
			"buffer":0,
			"byteLength":2448,
			"byteOffset":1519752,
			"target":34962
		},
		{
			"buffer":0,
			"byteLength":2568,
			"byteOffset":1522200,
			"target":34963
		}
	],
	"samplers":[
		{
			"magFilter":9729,
			"minFilter":9987
		}
	],
	"buffers":[
		{
			"byteLength":1524768,
			"uri":"data:application/octet-stream;base64,"
		}
	]
}
