{
	"asset":{
		"generator":"Khronos glTF Blender I/O v3.6.27",
		"version":"2.0"
	},
	"scene":0,
	"scenes":[
		{
			"name":"Scene",
			"nodes":[
				0,
				1
			]
		}
	],
	"nodes":[
		{
			"mesh":0,
			"name":"left",
			"rotation":[
				0.3826834559440613,
				0,
				0.9238795638084412,
				3.707891949034092e-07
			],
			"translation":[
				-0.11252109706401825,
				1.9866547584533691,
				0.34090203046798706
			]
		},
		{
			"mesh":1,
			"name":"right",
			"rotation":[
				0,
				0.3826834559440613,
				0,
				0.9238795638084412
			],
			"translation":[
				0.09811314940452576,
				-0.012511610984802246,
				0.1392245888710022
			]
		}
	],
	"animations":[
		{
			"channels":[
				{
					"sampler":0,
					"target":{
						"node":1,
						"path":"translation"
					}
				},
				{
					"sampler":1,
					"target":{
						"node":1,
						"path":"rotation"
					}
				}
			],
			"name":"rightAction",
			"samplers":[
				{
					"input":28,
					"interpolation":"LINEAR",
					"output":29
				},
				{
					"input":28,
					"interpolation":"LINEAR",
					"output":30
				}
			]
		}
	],
	"materials":[
		{
			"doubleSided":true,
			"name":"Material.004",
			"pbrMetallicRoughness":{
				"baseColorFactor":[
					0.9130988121032715,
					0.428690642118454,
					0.0027317435014992952,
					1
				],
				"metallicFactor":0,
				"roughnessFactor":0.5
			}
		},
		{
			"doubleSided":true,
			"name":"Material.005",
			"pbrMetallicRoughness":{
				"baseColorFactor":[
					0.8000000715255737,
					0.7789583206176758,
					0.7697303891181946,
					1
				],
				"metallicFactor":0,
				"roughnessFactor":0.5
			}
		},
		{
			"doubleSided":true,
			"name":"Material.006",
			"pbrMetallicRoughness":{
				"baseColorFactor":[
					0,
					0,
					0,
					1
				],
				"metallicFactor":0,
				"roughnessFactor":0.5
			}
		},
		{
			"doubleSided":true,
			"name":"Material.007",
			"pbrMetallicRoughness":{
				"baseColorTexture":{
					"index":0
				},
				"metallicFactor":0,
				"roughnessFactor":0.5
			}
		},
		{
			"doubleSided":true,
			"name":"Material.012",
			"pbrMetallicRoughness":{
				"baseColorFactor":[
					0.9130988121032715,
					0.428690642118454,
					0.0027317435014992952,
					1
				],
				"metallicFactor":0,
				"roughnessFactor":0.5
			}
		},
		{
			"doubleSided":true,
			"name":"Material.013",
			"pbrMetallicRoughness":{
				"baseColorFactor":[
					0.8000000715255737,
					0.7789583206176758,
					0.7697303891181946,
					1
				],
				"metallicFactor":0,
				"roughnessFactor":0.5
			}
		},
		{
			"doubleSided":true,
			"name":"Material.014",
			"pbrMetallicRoughness":{
				"baseColorFactor":[
					0,
					0,
					0,
					1
				],
				"metallicFactor":0,
				"roughnessFactor":0.5
			}
		},
		{
			"doubleSided":true,
			"name":"Material.016",
			"pbrMetallicRoughness":{
				"baseColorTexture":{
					"index":1
				},
				"metallicFactor":0,
				"roughnessFactor":0.5
			}
		}
	],
	"meshes":[
		{
			"name":"Cylinder.002",
			"primitives":[
				{
					"attributes":{
						"POSITION":0,
						"NORMAL":1,
						"TEXCOORD_0":2
					},
					"indices":3,
					"material":0
				},
				{
					"attributes":{
						"POSITION":4,
						"NORMAL":5,
						"TEXCOORD_0":6
					},
					"indices":7,
					"material":1
				},
				{
					"attributes":{
						"POSITION":8,
						"NORMAL":9,
						"TEXCOORD_0":10
					},
					"indices":11,
					"material":2
				},
				{
					"attributes":{
						"POSITION":12,
						"NORMAL":13,
						"TEXCOORD_0":14
					},
					"indices":15,
					"material":3
				}
			]
		},
		{
			"name":"Cylinder.003",
			"primitives":[
				{
					"attributes":{
						"POSITION":16,
						"NORMAL":17,
						"TEXCOORD_0":18
					},
					"indices":3,
					"material":4
				},
				{
					"attributes":{
						"POSITION":19,
						"NORMAL":20,
						"TEXCOORD_0":21
					},
					"indices":7,
					"material":5
				},
				{
					"attributes":{
						"POSITION":22,
						"NORMAL":23,
						"TEXCOORD_0":24
					},
					"indices":11,
					"material":6
				},
				{
					"attributes":{
						"POSITION":25,
						"NORMAL":26,
						"TEXCOORD_0":27
					},
					"indices":15,
					"material":7
				}
			]
		}
	],
	"textures":[
		{
			"sampler":0,
			"source":0
		},
		{
			"sampler":0,
			"source":0
		}
	],
	"images":[
		{
			"bufferView":16,
			"mimeType":"image/jpeg",
			"name":"\ucc38\uc678\ub2e8\uba74"
		}
	],
	"accessors":[
		{
			"bufferView":0,
			"componentType":5126,
			"count":226,
			"max":[
				-0.1669689416885376,
				2.0431647300720215,
				1.1423536539077759
			],
			"min":[
				-1.2065726518630981,
				-0.05487179756164551,
				-1.511994481086731
			],
			"type":"VEC3"
		},
		{
			"bufferView":1,
			"componentType":5126,
			"count":226,
			"type":"VEC3"
		},
		{
			"bufferView":2,
			"componentType":5126,
			"count":226,
			"type":"VEC2"
		},
		{
			"bufferView":3,
			"componentType":5123,
			"count":744,
			"type":"SCALAR"
		},
		{
			"bufferView":4,
			"componentType":5126,
			"count":150,
			"max":[
				-0.1669689416885376,
				2.0431647300720215,
				1.1423536539077759
			],
			"min":[
				-1.2065726518630981,
				0.12108743190765381,
				-1.511994481086731
			],
			"type":"VEC3"
		},
		{
			"bufferView":5,
			"componentType":5126,
			"count":150,
			"type":"VEC3"
		},
		{
			"bufferView":6,
			"componentType":5126,
			"count":150,
			"type":"VEC2"
		},
		{
			"bufferView":7,
			"componentType":5123,
			"count":441,
			"type":"SCALAR"
		},
		{
			"bufferView":8,
			"componentType":5126,
			"count":81,
			"max":[
				-0.1669689416885376,
				1.0998787879943848,
				1.1423536539077759
			],
			"min":[
				-0.2653658986091614,
				0.8945250511169434,
				-1.511994481086731
			],
			"type":"VEC3"
		},
		{
			"bufferView":9,
			"componentType":5126,
			"count":81,
			"type":"VEC3"
		},
		{
			"bufferView":10,
			"componentType":5126,
			"count":81,
			"type":"VEC2"
		},
		{
			"bufferView":11,
			"componentType":5123,
			"count":327,
			"type":"SCALAR"
		},
		{
			"bufferView":12,
			"componentType":5126,
			"count":34,
			"max":[
				-0.1623392105102539,
				2.04866886138916,
				1.1396323442459106
			],
			"min":[
				-0.1623392105102539,
				-0.049367547035217285,
				-1.5147159099578857
			],
			"type":"VEC3"
		},
		{
			"bufferView":13,
			"componentType":5126,
			"count":34,
			"type":"VEC3"
		},
		{
			"bufferView":14,
			"componentType":5126,
			"count":34,
			"type":"VEC2"
		},
		{
			"bufferView":15,
			"componentType":5123,
			"count":96,
			"type":"SCALAR"
		},
		{
			"bufferView":17,
			"componentType":5126,
			"count":226,
			"max":[
				-0.1669689416885376,
				2.0431647300720215,
				1.1423536539077759
			],
			"min":[
				-1.2065726518630981,
				-0.05487179756164551,
				-1.511994481086731
			],
			"type":"VEC3"
		},
		{
			"bufferView":18,
			"componentType":5126,
			"count":226,
			"type":"VEC3"
		},
		{
			"bufferView":19,
			"componentType":5126,
			"count":226,
			"type":"VEC2"
		},
		{
			"bufferView":20,
			"componentType":5126,
			"count":150,
			"max":[
				-0.1669689416885376,
				2.0431647300720215,
				1.1423536539077759
			],
			"min":[
				-1.2065726518630981,
				0.12108743190765381,
				-1.511994481086731
			],
			"type":"VEC3"
		},
		{
			"bufferView":21,
			"componentType":5126,
			"count":150,
			"type":"VEC3"
		},
		{
			"bufferView":22,
			"componentType":5126,
			"count":150,
			"type":"VEC2"
		},
		{
			"bufferView":23,
			"componentType":5126,
			"count":81,
			"max":[
				-0.1669689416885376,
				1.0998787879943848,
				1.1423536539077759
			],
			"min":[
				-0.2653658986091614,
				0.8945250511169434,
				-1.511994481086731
			],
			"type":"VEC3"
		},
		{
			"bufferView":24,
			"componentType":5126,
			"count":81,
			"type":"VEC3"
		},
		{
			"bufferView":25,
			"componentType":5126,
			"count":81,
			"type":"VEC2"
		},
		{
			"bufferView":26,
			"componentType":5126,
			"count":34,
			"max":[
				-0.1623392105102539,
				2.04866886138916,
				1.1396323442459106
			],
			"min":[
				-0.1623392105102539,
				-0.049367547035217285,
				-1.5147159099578857
			],
			"type":"VEC3"
		},
		{
			"bufferView":27,
			"componentType":5126,
			"count":34,
			"type":"VEC3"
		},
		{
			"bufferView":28,
			"componentType":5126,
			"count":34,
			"type":"VEC2"
		},
		{
			"bufferView":29,
			"componentType":5126,
			"count":856,
			"max":[
				37.5
			],
			"min":[
				1.875
			],
			"type":"SCALAR"
		},
		{
			"bufferView":30,
			"componentType":5126,
			"count":856,
			"type":"VEC3"
		},
		{
			"bufferView":31,
			"componentType":5126,
			"count":856,
			"type":"VEC4"
		}
	],
	"bufferViews":[
		{
			"buffer":0,
			"byteLength":2712,
			"byteOffset":0,
			"target":34962
		},
		{
			"buffer":0,
			"byteLength":2712,
			"byteOffset":2712,
			"target":34962
		},
		{
			"buffer":0,
			"byteLength":1808,
			"byteOffset":5424,
			"target":34962
		},
		{
			"buffer":0,
			"byteLength":1488,
			"byteOffset":7232,
			"target":34963
		},
		{
			"buffer":0,
			"byteLength":1800,
			"byteOffset":8720,
			"target":34962
		},
		{
			"buffer":0,
			"byteLength":1800,
			"byteOffset":10520,
			"target":34962
		},
		{
			"buffer":0,
			"byteLength":1200,
			"byteOffset":12320,
			"target":34962
		},
		{
			"buffer":0,
			"byteLength":882,
			"byteOffset":13520,
			"target":34963
		},
		{
			"buffer":0,
			"byteLength":972,
			"byteOffset":14404,
			"target":34962
		},
		{
			"buffer":0,
			"byteLength":972,
			"byteOffset":15376,
			"target":34962
		},
		{
			"buffer":0,
			"byteLength":648,
			"byteOffset":16348,
			"target":34962
		},
		{
			"buffer":0,
			"byteLength":654,
			"byteOffset":16996,
			"target":34963
		},
		{
			"buffer":0,
			"byteLength":408,
			"byteOffset":17652,
			"target":34962
		},
		{
			"buffer":0,
			"byteLength":408,
			"byteOffset":18060,
			"target":34962
		},
		{
			"buffer":0,
			"byteLength":272,
			"byteOffset":18468,
			"target":34962
		},
		{
			"buffer":0,
			"byteLength":192,
			"byteOffset":18740,
			"target":34963
		},
		{
			"buffer":0,
			"byteLength":7988,
			"byteOffset":18932
		},
		{
			"buffer":0,
			"byteLength":2712,
			"byteOffset":26920,
			"target":34962
		},
		{
			"buffer":0,
			"byteLength":2712,
			"byteOffset":29632,
			"target":34962
		},
		{
			"buffer":0,
			"byteLength":1808,
			"byteOffset":32344,
			"target":34962
		},
		{
			"buffer":0,
			"byteLength":1800,
			"byteOffset":34152,
			"target":34962
		},
		{
			"buffer":0,
			"byteLength":1800,
			"byteOffset":35952,
			"target":34962
		},
		{
			"buffer":0,
			"byteLength":1200,
			"byteOffset":37752,
			"target":34962
		},
		{
			"buffer":0,
			"byteLength":972,
			"byteOffset":38952,
			"target":34962
		},
		{
			"buffer":0,
			"byteLength":972,
			"byteOffset":39924,
			"target":34962
		},
		{
			"buffer":0,
			"byteLength":648,
			"byteOffset":40896,
			"target":34962
		},
		{
			"buffer":0,
			"byteLength":408,
			"byteOffset":41544,
			"target":34962
		},
		{
			"buffer":0,
			"byteLength":408,
			"byteOffset":41952,
			"target":34962
		},
		{
			"buffer":0,
			"byteLength":272,
			"byteOffset":42360,
			"target":34962
		},
		{
			"buffer":0,
			"byteLength":3424,
			"byteOffset":42632
		},
		{
			"buffer":0,
			"byteLength":10272,
			"byteOffset":46056
		},
		{
			"buffer":0,
			"byteLength":13696,
			"byteOffset":56328
		}
	],
	"samplers":[
		{
			"magFilter":9729,
			"minFilter":9987
		}
	],
	"buffers":[
		{
			"byteLength":70024,
			"uri":"data:application/octet-stream;base64,"
		}
	]
}
