{
	"asset":{
		"generator":"Khronos glTF Blender I/O v3.6.27",
		"version":"2.0"
	},
	"scene":0,
	"scenes":[
		{
			"name":"Scene",
			"nodes":[
				0
			]
		}
	],
	"nodes":[
		{
			"mesh":0,
			"name":"Kmelon",
			"rotation":[
				0.7071068286895752,
				0,
				0,
				0.7071068286895752
			],
			"scale":[
				1,
				1.2322535514831543,
				1
			],
			"translation":[
				0,
				1,
				0
			]
		}
	],
	"materials":[
		{
			"doubleSided":true,
			"name":"Material.001",
			"pbrMetallicRoughness":{
				"baseColorFactor":[
					0.9130988121032715,
					0.428690642118454,
					0.0027317435014992952,
					1
				],
				"metallicFactor":0,
				"roughnessFactor":0.5
			}
		},
		{
			"doubleSided":true,
			"name":"Material.002",
			"pbrMetallicRoughness":{
				"baseColorFactor":[
					0.8000000715255737,
					0.7789583206176758,
					0.7697303891181946,
					1
				],
				"metallicFactor":0,
				"roughnessFactor":0.5
			}
		},
		{
			"doubleSided":true,
			"name":"Material.003",
			"pbrMetallicRoughness":{
				"baseColorFactor":[
					0,
					0,
					0,
					1
				],
				"metallicFactor":0,
				"roughnessFactor":0.5
			}
		}
	],
	"meshes":[
		{
			"name":"Cylinder.001",
			"primitives":[
				{
					"attributes":{
						"POSITION":0,
						"NORMAL":1,
						"TEXCOORD_0":2
					},
					"indices":3,
					"material":0
				},
				{
					"attributes":{
						"POSITION":4,
						"NORMAL":5,
						"TEXCOORD_0":6
					},
					"indices":7,
					"material":1
				},
				{
					"attributes":{
						"POSITION":8,
						"NORMAL":9,
						"TEXCOORD_0":10
					},
					"indices":11,
					"material":2
				}
			]
		}
	],
	"accessors":[
		{
			"bufferView":0,
			"componentType":5126,
			"count":384,
			"max":[
				1.0503746271133423,
				1.0832421779632568,
				1.0503746271133423
			],
			"min":[
				-1.0503746271133423,
				-1.0708179473876953,
				-1.0503746271133423
			],
			"type":"VEC3"
		},
		{
			"bufferView":1,
			"componentType":5126,
			"count":384,
			"type":"VEC3"
		},
		{
			"bufferView":2,
			"componentType":5126,
			"count":384,
			"type":"VEC2"
		},
		{
			"bufferView":3,
			"componentType":5123,
			"count":1296,
			"type":"SCALAR"
		},
		{
			"bufferView":4,
			"componentType":5126,
			"count":288,
			"max":[
				1.0503746271133423,
				1.0832421779632568,
				1.0503746271133423
			],
			"min":[
				-1.0503746271133423,
				-1.0708179473876953,
				-1.0503746271133423
			],
			"type":"VEC3"
		},
		{
			"bufferView":5,
			"componentType":5126,
			"count":288,
			"type":"VEC3"
		},
		{
			"bufferView":6,
			"componentType":5126,
			"count":288,
			"type":"VEC2"
		},
		{
			"bufferView":7,
			"componentType":5123,
			"count":864,
			"type":"SCALAR"
		},
		{
			"bufferView":8,
			"componentType":5126,
			"count":160,
			"max":[
				0.10860547423362732,
				1.0832421779632568,
				0.11448860168457031
			],
			"min":[
				-0.10916787385940552,
				-1.0708179473876953,
				-0.10569533705711365
			],
			"type":"VEC3"
		},
		{
			"bufferView":9,
			"componentType":5126,
			"count":160,
			"type":"VEC3"
		},
		{
			"bufferView":10,
			"componentType":5126,
			"count":160,
			"type":"VEC2"
		},
		{
			"bufferView":11,
			"componentType":5123,
			"count":708,
			"type":"SCALAR"
		}
	],
	"bufferViews":[
		{
			"buffer":0,
			"byteLength":4608,
			"byteOffset":0,
			"target":34962
		},
		{
			"buffer":0,
			"byteLength":4608,
			"byteOffset":4608,
			"target":34962
		},
		{
			"buffer":0,
			"byteLength":3072,
			"byteOffset":9216,
			"target":34962
		},
		{
			"buffer":0,
			"byteLength":2592,
			"byteOffset":12288,
			"target":34963
		},
		{
			"buffer":0,
			"byteLength":3456,
			"byteOffset":14880,
			"target":34962
		},
		{
			"buffer":0,
			"byteLength":3456,
			"byteOffset":18336,
			"target":34962
		},
		{
			"buffer":0,
			"byteLength":2304,
			"byteOffset":21792,
			"target":34962
		},
		{
			"buffer":0,
			"byteLength":1728,
			"byteOffset":24096,
			"target":34963
		},
		{
			"buffer":0,
			"byteLength":1920,
			"byteOffset":25824,
			"target":34962
		},
		{
			"buffer":0,
			"byteLength":1920,
			"byteOffset":27744,
			"target":34962
		},
		{
			"buffer":0,
			"byteLength":1280,
			"byteOffset":29664,
			"target":34962
		},
		{
			"buffer":0,
			"byteLength":1416,
			"byteOffset":30944,
			"target":34963
		}
	],
	"buffers":[
		{
			"byteLength":32360,
			"uri":"data:application/octet-stream;base64,"
		}
	]
}
